# xmcd CD database file
#
# Track frame offsets:
#	150
#	52395
#	100092
#	133907
#	169767
#
# Disc length: 3099 seconds
#
# Revision: 0
# Processed by: cddbd v1.5.1PL0 Copyright (c) Steve Scherf et al.
# Submitted via: CDex 1.50Beta7
#
DISCID=460c1905
DTITLE=KENNY DREW - KENNY DREW LIVE
DYEAR=1992
DGENRE=Jazz
TTITLE0=IN YOUR OWN SWEET WAY
TTITLE1=IT MIGHT AS WELL BE SPRING
TTITLE2=SAINT THOMAS
TTITLE3=IT COULD HAPPEN TO YOU
TTITLE4=HUSHABYE
EXTD=YEAR: 1992
EXTT0=
EXTT1=
EXTT2=
EXTT3=
EXTT4=
PLAYORDER=
